/* XPM */
static char *_bf9f18f10224204cd1314b6de8a5065qDtqoo7pw0DCZLWQ[] = {
/* columns rows colors chars-per-pixel */
"64 64 8 1 ",
"  c black",
". c #ED1C24",
"X c #E5AA7A",
"o c #2F3699",
"O c #709AD1",
"+ c #D3F9BC",
"@ c #FFF9BD",
"# c white",
/* pixels */
" @@@@@@@@@@@@@@@@@@@@@@@@@@@@@    @@@@@@@@@@@@@@@@@@@@@@@@@@@@@ ",
"+ @@@@@@@@@@@@@@@@@@@@@@@@@@@ .... @@@@@@@@@@@@@@@@@@@@@@@@@@@ +",
"++ @@@@@@@@@@@@@@@@@@@@@@@@@ ...... @@@@@@@@@@@@@@@@@@@@@@@@@ ++",
"+++ @@@@@@@@@@@@@@@@@@@@@@@ ........ @@@@@@@@@@@@@@@@@@@@@@@ +++",
"++++ @@@@@@@@@@@@@@@@@@@@@ .......... @@@@@@@@@@@@@@@@@@@@@ ++++",
"+++++ @@@@@@@@@@@@@@@@@@@ ............ @@@@@@@@@@@@@@@@@@@ +++++",
"++++++ @@@@@@@@@@@@@@@@@ .............. @@@@@@@@@@@@@@@@@ ++++++",
"+++++++ @@@@@@@@@@@@@@@ ................ @@@@@@@@@@@@@@@ +++++++",
"++++++++ @@@@@@@@@@@@@ .................. @@@@@@@@@@@@@ ++++++++",
"+++++++++ @@@@@@@@@@@ .................... @@@@@@@@@@@ +++++++++",
"++++++++++ @@@@@@@@@ ...................... @@@@@@@@@ ++++++++++",
"+++++++++++ @@@@@@@ ........................ @@@@@@@ +++++++++++",
"++++++++++++ @@@@@ .......................... @@@@@ ++++++++++++",
"+++++++++++++ @@@ ............................ @@@ +++++++++++++",
"++++++++++++++ @ .............................. @ ++++++++++++++",
"+++++++++++++++ ................................ +++++++++++++++",
"++++++++++++++ X .............................. X ++++++++++++++",
"+++++++++++++ XXX ............................ XXX +++++++++++++",
"++++++++++++ XXXXX .......................... XXXXX ++++++++++++",
"+++++++++++ XXXXXXX ........................ XXXXXXX +++++++++++",
"++++++++++ XXXXXXXXX ...................... XXXXXXXXX ++++++++++",
"+++++++++ XXXXXXXXXXX .................... XXXXXXXXXXX +++++++++",
"++++++++ XXXXXXXXXXXXX .................. XXXXXXXXXXXXX ++++++++",
"+++++++ XXXXXXXXXXXXXXX ................ XXXXXXXXXXXXXXX +++++++",
"++++++ XXXXXXXXXXXXXXXXX .............. XXXXXXXXXXXXXXXXX ++++++",
"+++++ XXXXXXXXXXXXXXXXXXX ............ XXXXXXXXXXXXXXXXXXX +++++",
"++++ XXXXXXXXXXXXXXXXXXXXX .......... XXXXXXXXXXXXXXXXXoooooooo+",
"+++ XXXXXXXXXXXXXXXXXXXXXXX ........ XXXXXXXXXXXXXXXXXXoooooooo+",
"++ XXXXXXXXXXXXXXXXXXXXXXXXX ...... XXXXXXXXXXXXXXXXXoo########o",
"+ XXXXXXXXXXXXXXXXXXXXXXXXXXX .... XXXXXXXXXXXXXXXXXXoo########o",
" XXXXXXXXXXXXXXXXXXXXXXXXXXXXX .. XXXXXXXXXXXXXXXXXoo####  ##  #",
" XXXXXXXXXXXXXXXXXXXXXXXXXXXXXX  XXXXXXXXXXXXXXXXXXoo####  ##  #",
" XXXXXXXXXXXXXXXXXXXXXXXXXXXXXX  XXXXXXXXXXXXXXXXXXoo####  ##  #",
" XXXXXXXXXXXXXXXXXXXXXXXXXXXXX .. XXXXXXXXXXXXXXXXXoo####  ##  #",
"+ XXXXXXXXXXXXXXXXXXXXXXXXXXX .... XXXXXXXXXXXXXXXXoo####  ##  #",
"++ XXXXXXXXXXXXXXXXXXXXXXXXX ...... XXXXXXXXXXXXXXXoo####  ##  #",
"+++ XXXXXXXXXXXXXXXXXXXXXXX ........ XXXXXXXXXXXXXXoo###########",
"++++ XXXXXXXXXXXXXXXXXXXXX .......... XXXXXXXXXXXXXoo###########",
"+++++ XXXXXXXXXXXXXXXXXXX ............ XXXXXXXXXXXXXXoo########o",
"++++++ XXXXXXXXXXXXXXXXX .............. XXXXXXXXXXXXXoo########o",
"+++++++ XXXXXXXXXXXXXXX ................ XXXXXXXXXXXXXXoooooooo+",
"++++++++ XXXXXXXXXXXXX .................. XXXXXXXXXXXXXoooooooo+",
"+++++++++ XXXXXXXXXXX .................... XXXXXXXXXXOOOO+++++++",
"++++++++++ XXXXXXXXX ...................... XXXXXXXXXOOOO+++++++",
"+++++++++++ XXXXXXX ........................ XXXXXXOO++OOOO+++++",
"++++++++++++ XXXXX .......................... XXXXXOO++OOOO+++++",
"+++++++++++++ XXX ............................ XXOO++++OOOO+++++",
"++++++++++++++ X .............................. XOO++++OOOO+++++",
"+++++++++++++++ ................................ OO++++OOOO+++++",
"++++++++++++++ @ .............................. @OO++++OOOO+++++",
"+++++++++++++ @@@ ............................ @@OO++++OO++OO+++",
"++++++++++++ @@@@@ .......................... @@@OO +++OO++OO+++",
"+++++++++++ @@@@@@@ ........................ @@@@@@OO++OO+++++++",
"++++++++++ @@@@@@@@@ ...................... @@@@@@@OO +OO+++++++",
"+++++++++ @@@@@@@@@@@ .................... @@@@@@@@@@@ OOOO+++++",
"++++++++ @@@@@@@@@@@@@ .................. @@@@@@@@@@@@@OOOO+++++",
"+++++++ @@@@@@@@@@@@@@@ ................ @@@@@@@@@@@@@@OO++OO+++",
"++++++ @@@@@@@@@@@@@@@@@ .............. @@@@@@@@@@@@@@@OO +OO+++",
"+++++ @@@@@@@@@@@@@@@@@@@ ............ @@@@@@@@@@@@@@OO@@@ OO+++",
"++++ @@@@@@@@@@@@@@@@@@@@@ .......... @@@@@@@@@@@@@@@OO@@@@OO+++",
"+++ @@@@@@@@@@@@@@@@@@@@@@@ ........ @@@@@@@@@@@@@@OO@@@@@@OO+++",
"++ @@@@@@@@@@@@@@@@@@@@@@@@@ ...... @@@@@@@@@@@@@@@OO@@@@@@OO ++",
"+ @@@@@@@@@@@@@@@@@@@@@@@@@@@ .... @@@@@@@@@@@@@@OO@@@@@@@@OO@ +",
" @@@@@@@@@@@@@@@@@@@@@@@@@@@@@    @@@@@@@@@@@@@@@OO@@@@@@@@OO@@ "
};
