/* XPM */
static char *f70d1dab6e2d4a8dade571f6b062a621nUeXmi7A5YBSeGmP[] = {
/* columns rows colors chars-per-pixel */
"64 64 8 1 ",
"  c black",
". c #ED1C24",
"X c #E5AA7A",
"o c #2F3699",
"O c #709AD1",
"+ c #D3F9BC",
"@ c #FFF9BD",
"# c white",
/* pixels */
" @@@@@@@@@@@@@@@@@@@@@@@@@@@@@    @@@@@@@@@@@@@@@@@@@@@@@@@@@@@ ",
"+ @@@@@@@@@@@@@@@@@@@@@@@@@@@ .... @@@@@@@@@@@@@@@@@@@@@@@@@@@ +",
"++ @@@@@@@@@@@@@@@@@@@@@@@@@ ...... @@@@@@@@@@@@@@@@@@@@@@@@@ ++",
"+++ @@@@@@@@@@@@@@@@@@@@@@@ ........ @@@@@@@@@@@@@@@@@@@@@@@ +++",
"++++ @@@@@@@@@@@@@@@@@@@@@ .......... @@@@@@@@@@@@@@@@@@@@@ ++++",
"+++++ @@@@@@@@@@@@@@@@@@@ ............ @@@@@@@@@@@@@@@@@@@ +++++",
"++++++ @@@@@@@@@@@@@@@@@ .............. @@@@@@@@@@@@@@@@@ ++++++",
"+++++++ @@@@@@@@@@@@@@@ ................ @@@@@@@@@@@@@@@ +++++++",
"++++++++ @@@@@@@@@@@@@ .................. @@@@@@@@@@@@@ ++++++++",
"+++++++++ @@@@@@@@@@@ .................... @@@@@@@@@@@ +++++++++",
"++++++++++ @@@@@@@@@ ...................... @@@@@@@@@ ++++++++++",
"+++++++++++ @@@@@@@ ........................ @@@@@@@ +++++++++++",
"++++++++++++ @@@@@ .......................... @@@@@ ++++++++++++",
"+++++++++++++ @@@ ............................ @@@ +++++++++++++",
"++++++++++++++ @ .............................. @ ++++++++++++++",
"+++++++++++++++ ................................ +++++++++++++++",
"++++++++++++++ X .............................. X ++++++++++++++",
"+++++++++++++ XXX ............................ XXX +++++++++++++",
"++++++++++++ XXXXX .......................... XXXXX ++++++++++++",
"+++++++++++ XXXXXXX ........................ XXXXXXX +++++++++++",
"++++++++++ XXXXXXXXX ...................... XXXXXXXXX ++++++++++",
"+++++++++ XXXXXXXXXXX .................... XXXXXXXXXXX +++++++++",
"++++++++ XXXXXXXXXXXXX .................. XXXXXXXXXXXXX ++++++++",
"+++++++ XXXXXXXXXXXXXXX ................ XXXXXXXXXXXXXXX +++++++",
"++++++ XXXXXXXXXXXXXXXXX .............. XXXXXXXXXXXXXXXXX ++++++",
"+++++ XXXXXXXXXXXXXXXXXXX ............ XXXXXXXXXXXXXXXXXXX +++++",
"++++ XXXXXXXXXXXXXXXXXoooooooo....... XXXXXXXXXXXXXXXXXXXXX ++++",
"+++ XXXXXXXXXXXXXXXXXXoooooooo...... XXXXXXXXXXXXXXXXXXXXXXX +++",
"++ XXXXXXXXXXXXXXXXXoo########oo... XXXXXXXXXXXXXXXXXXXXXXXXX ++",
"+ XXXXXXXXXXXXXXXXXXoo########oo.. XXXXXXXXXXXXXXXXXXXXXXXXXXX +",
" XXXXXXXXXXXXXXXXXoo####  ##  ##ooXXXXXXXXXXXXXXXXXXXXXXXXXXXXX ",
" XXXXXXXXXXXXXXXXXoo####  ##  ##ooXXXXXXXXXXXXXXXXXXXXXXXXXXXXX ",
" XXXXXXXXXXXXXXXXXoo####  ##  ##ooXXXXXXXXXXXXXXXXXXXXXXXXXXXXX ",
" XXXXXXXXXXXXXXXXXoo####  ##  ##ooXXXXXXXXXXXXXXXXXXXXXXXXXXXXX ",
"+ XXXXXXXXXXXXXXXXoo####  ##  ##oo XXXXXXXXXXXXXXXXXXXXXXXXXXX +",
"++ XXXXXXXXXXXXXXXoo####  ##  ##oo. XXXXXXXXXXXXXXXXXXXXXXXXX ++",
"+++ XXXXXXXXXXXXXXoo############oo.. XXXXXXXXXXXXXXXXXXXXXXX +++",
"++++ XXXXXXXXXXXXXoo############oo... XXXXXXXXXXXXXXXXXXXXX ++++",
"+++++ XXXXXXXXXXXXXXoo########oo...... XXXXXXXXXXXXXXXXXXX +++++",
"++++++ XXXXXXXXXXXXXoo########oo....... XXXXXXXXXXXXXXXXX ++++++",
"+++++++ XXXXXXXXXXXXXXoooooooo.......... XXXXXXXXXXXXXXX +++++++",
"++++++++ XXXXXXXXXXXXXoooooooo........... XXXXXXXXXXXXX ++++++++",
"+++++++++ XXXXXXXXXXOOOO.................. XXXXXXXXXXX +++++++++",
"++++++++++ XXXXXXXXXOOOO................... XXXXXXXXX ++++++++++",
"+++++++++++ XXXXXXOO..OOOO.................. XXXXXXX +++++++++++",
"++++++++++++ XXXXXOO..OOOO................... XXXXX ++++++++++++",
"+++++++++++++ XXOO....OOOO.................... XXX +++++++++++++",
"++++++++++++++ XOO....OOOO..................... X ++++++++++++++",
"+++++++++++++++ OO....OOOO...................... +++++++++++++++",
"++++++++++++++ @OO....OOOO..................... @ ++++++++++++++",
"+++++++++++++ @@OO....OO..OO.................. @@@ +++++++++++++",
"++++++++++++ @@@OO ...OO..OO................. @@@@@ ++++++++++++",
"+++++++++++ @@@@@@OO..OO.................... @@@@@@@ +++++++++++",
"++++++++++ @@@@@@@OO .OO................... @@@@@@@@@ ++++++++++",
"+++++++++ @@@@@@@@@@@ OOOO................ @@@@@@@@@@@ +++++++++",
"++++++++ @@@@@@@@@@@@@OOOO............... @@@@@@@@@@@@@ ++++++++",
"+++++++ @@@@@@@@@@@@@@OO..OO............ @@@@@@@@@@@@@@@ +++++++",
"++++++ @@@@@@@@@@@@@@@OO .OO........... @@@@@@@@@@@@@@@@@ ++++++",
"+++++ @@@@@@@@@@@@@@OO@@@ OO.......... @@@@@@@@@@@@@@@@@@@ +++++",
"++++ @@@@@@@@@@@@@@@OO@@@@OO......... @@@@@@@@@@@@@@@@@@@@@ ++++",
"+++ @@@@@@@@@@@@@@OO@@@@@@OO........ @@@@@@@@@@@@@@@@@@@@@@@ +++",
"++ @@@@@@@@@@@@@@@OO@@@@@@OO ...... @@@@@@@@@@@@@@@@@@@@@@@@@ ++",
"+ @@@@@@@@@@@@@@OO@@@@@@@@OO@ .... @@@@@@@@@@@@@@@@@@@@@@@@@@@ +",
" @@@@@@@@@@@@@@@OO@@@@@@@@OO@@    @@@@@@@@@@@@@@@@@@@@@@@@@@@@@ "
};
