/* XPM */
static char *c537b5b3cd6e437a8a662f5c711c11a7Vh2W06taSv8QLfC2[] = {
/* columns rows colors chars-per-pixel */
"64 64 8 1 ",
"  c black",
". c #ED1C24",
"X c #E5AA7A",
"o c #2F3699",
"O c #709AD1",
"+ c #D3F9BC",
"@ c #FFF9BD",
"# c white",
/* pixels */
" @@@@@@@@@@@@@@@@@@@@@@@@@@@@@    @@@@@@@@@@@@@@@@@@@@@@@@@@@@@ ",
"+ @@@@@@@@@@@@@@@@@@@@@@@@@@@ .... @@@@@@@@@@@@@@@@@@@@@@@@@@@ +",
"++ @@@@@@@@@@@@@@@@@@@@@@@@@ ...... @@@@@@@@@@@@@@@@@@@@@@@@@ ++",
"+++ @@@@@@@@@@@@@@@@@@@@@@@ ........ @@@@@@@@@@@@@@@@@@@@@@@ +++",
"++++ @@@@@@@@@@@@@@@@@@@@@ .......... @@@@@@@@@@@@@@@@@@@@@ ++++",
"+++++ @@@@@@@@@@@@@@@@@@@ ............ @@@@@@@@@@@@@@@@@@@ +++++",
"++++++ @@@@@@@@@@@@@@@@@ .............. @@@@@@@@@@@@@@@@@ ++++++",
"+++++++ @@@@@@@@@@@@@@@ ................ @@@@@@@@@@@@@@@ +++++++",
"++++++++ @@@@@@@@@@@@@ .................. @@@@@@@@@@@@@ ++++++++",
"+++++++++ @@@@@@@@@@@ .................... @@@@@@@@@@@ +++++++++",
"++++++++++ @@@@@@@@@ ...................... @@@@@@@@@ ++++++++++",
"+++++++++++ @@@@@@@ ........................ @@@@@@@ +++++++++++",
"++++++++++++ @@@@@ .......................... @@@@@ ++++++++++++",
"+++++++++++++ @@@ ............................ @@@ +++++++++++++",
"++++++++++++++ @ .............................. @ ++++++++++++++",
"+++++++++++++++ ................................ +++++++++++++++",
"++++++++++++++ X .............................. X ++++++++++++++",
"+++++++++++++ XXX ............................ XXX +++++++++++++",
"++++++++++++ XXXXX .......................... XXXXX ++++++++++++",
"+++++++++++ XXXXXXX ........................ XXXXXXX +++++++++++",
"++++++++++ XXXXXXXXX ...................... XXXXXXXXX ++++++++++",
"+++++++++ XXXXXXXXXXX .................... XXXXXXXXXXX +++++++++",
"++++++++ XXXXXXXXXXXXX .................. XXXXXXXXXXXXX ++++++++",
"+++++++ XXXXXXXXXXXXXXX ................ XXXXXXXXXXXXXXX +++++++",
"++++++ XXXXXXXXXXXXXXXXX .............. XXXXXXXXXXXXXXXXX ++++++",
"+++++ XXXXXXXXXXXXXXXXXXX ............ XXXXXXXXXXXXXXXXXXX +++++",
"++++ XXXXXXXXXXXXXXXXXXXXX .......... ooooooooXXXXXXXXXXXXX ++++",
"+++ XXXXXXXXXXXXXXXXXXXXXXX ........ XooooooooXXXXXXXXXXXXXX +++",
"++ XXXXXXXXXXXXXXXXXXXXXXXXX ...... oo########ooXXXXXXXXXXXXX ++",
"+ XXXXXXXXXXXXXXXXXXXXXXXXXXX .... Xoo########ooXXXXXXXXXXXXXX +",
" XXXXXXXXXXXXXXXXXXXXXXXXXXXXX .. oo####  ##  ##ooXXXXXXXXXXXXX ",
" XXXXXXXXXXXXXXXXXXXXXXXXXXXXXX  Xoo####  ##  ##ooXXXXXXXXXXXXX ",
" XXXXXXXXXXXXXXXXXXXXXXXXXXXXXX  Xoo####  ##  ##ooXXXXXXXXXXXXX ",
" XXXXXXXXXXXXXXXXXXXXXXXXXXXXX .. oo####  ##  ##ooXXXXXXXXXXXXX ",
"+ XXXXXXXXXXXXXXXXXXXXXXXXXXX ....oo####  ##  ##ooXXXXXXXXXXXX +",
"++ XXXXXXXXXXXXXXXXXXXXXXXXX .....oo####  ##  ##ooXXXXXXXXXXX ++",
"+++ XXXXXXXXXXXXXXXXXXXXXXX ......oo############ooXXXXXXXXXX +++",
"++++ XXXXXXXXXXXXXXXXXXXXX .......oo############ooXXXXXXXXX ++++",
"+++++ XXXXXXXXXXXXXXXXXXX ..........oo########ooXXXXXXXXXX +++++",
"++++++ XXXXXXXXXXXXXXXXX ...........oo########ooXXXXXXXXX ++++++",
"+++++++ XXXXXXXXXXXXXXX ..............ooooooooXXXXXXXXXX +++++++",
"++++++++ XXXXXXXXXXXXX ...............ooooooooXXXXXXXXX ++++++++",
"+++++++++ XXXXXXXXXXX ..............OOOO.. XXXXXXXXXXX +++++++++",
"++++++++++ XXXXXXXXX ...............OOOO... XXXXXXXXX ++++++++++",
"+++++++++++ XXXXXXX ..............OO..OOOO.. XXXXXXX +++++++++++",
"++++++++++++ XXXXX ...............OO..OOOO... XXXXX ++++++++++++",
"+++++++++++++ XXX ..............OO....OOOO.... XXX +++++++++++++",
"++++++++++++++ X ...............OO....OOOO..... X ++++++++++++++",
"+++++++++++++++ ................OO....OOOO...... +++++++++++++++",
"++++++++++++++ @ ...............OO....OOOO..... @ ++++++++++++++",
"+++++++++++++ @@@ ..............OO....OO..OO.. @@@ +++++++++++++",
"++++++++++++ @@@@@ .............OO....OO..OO. @@@@@ ++++++++++++",
"+++++++++++ @@@@@@@ ..............OO..OO.... @@@@@@@ +++++++++++",
"++++++++++ @@@@@@@@@ .............OO..OO... @@@@@@@@@ ++++++++++",
"+++++++++ @@@@@@@@@@@ ................OOOO @@@@@@@@@@@ +++++++++",
"++++++++ @@@@@@@@@@@@@ ...............OOOO@@@@@@@@@@@@@ ++++++++",
"+++++++ @@@@@@@@@@@@@@@ ..............OO @OO@@@@@@@@@@@@ +++++++",
"++++++ @@@@@@@@@@@@@@@@@ .............OO@@OO@@@@@@@@@@@@@ ++++++",
"+++++ @@@@@@@@@@@@@@@@@@@ ..........OO @@@OO@@@@@@@@@@@@@@ +++++",
"++++ @@@@@@@@@@@@@@@@@@@@@ .........OO@@@@OO@@@@@@@@@@@@@@@ ++++",
"+++ @@@@@@@@@@@@@@@@@@@@@@@ ......OO @@@@@OO@@@@@@@@@@@@@@@@ +++",
"++ @@@@@@@@@@@@@@@@@@@@@@@@@ .....OO@@@@@@OO@@@@@@@@@@@@@@@@@ ++",
"+ @@@@@@@@@@@@@@@@@@@@@@@@@@@ ..OO @@@@@@@OO@@@@@@@@@@@@@@@@@@ +",
" @@@@@@@@@@@@@@@@@@@@@@@@@@@@@  OO@@@@@@@@OO@@@@@@@@@@@@@@@@@@@ "
};
