/* XPM */
static char *_0797c3475e54159e821537e297f90bfZPJjaL9FSXOnQFaz[] = {
/* columns rows colors chars-per-pixel */
"64 64 8 1 ",
"  c black",
". c #ED1C24",
"X c #E5AA7A",
"o c #2F3699",
"O c #709AD1",
"+ c #D3F9BC",
"@ c #FFF9BD",
"# c white",
/* pixels */
" @@@@@@@@@@@@@@@@@@@@@@@@@@@@@    @@@@@@@@@@@@@@@@@@@@@@@@@@@@@ ",
"+ @@@@@@@@@@@@@@@@@@@@@@@@@@@ .... @@@@@@@@@@@@@@@@@@@@@@@@@@@ +",
"++ @@@@@@@@@@@@@@@@@@@@@@@@@ ...... @@@@@@@@@@@@@@@@@@@@@@@@@ ++",
"+++ @@@@@@@@@@@@@@@@@@@@@@@ ........ @@@@@@@@@@@@@@@@@@@@@@@ +++",
"++++ @@@@@@@@@@@@@@@@@@@@@ .......... @@@@@@@@@@@@@@@@@@@@@ ++++",
"+++++ @@@@@@@@@@@@@@@@@@@ ............ @@@@@@@@@@@@@@@@@@@ +++++",
"++++++ @@@@@@@@@@@@@@@@@ .............. @@@@@@@@@@@@@@@@@ ++++++",
"+++++++ @@@@@@@@@@@@@@@ ................ @@@@@@@@@@@@@@@ +++++++",
"++++++++ @@@@@@@@@@@@@ .................. @@@@@@@@@@@@@ ++++++++",
"+++++++++ @@@@@@@@@@@ .................... @@@@@@@@@@@ +++++++++",
"++++++++++ @@@@@@@@@ ...................... @@@@@@@@@ ++++++++++",
"+++++++++++ @@@@@@@ ........................ @@@@@@@ +++++++++++",
"++++++++++++ @@@@@ .......................... @@@@@ ++++++++++++",
"+++++++++++++ @@@ ............................ @@@ +++++++++++++",
"++++++++++++++ @ .............................. @ ++++++++++++++",
"+++++++++++++++ ................................ +++++++++++++++",
"++++++++++++++ X .............................. X ++++++++++++++",
"+++++++++++++ XXX ............................ XXX +++++++++++++",
"++++++++++++ XXXXX .......................... XXXXX ++++++++++++",
"+++++++++++ XXXXXXX ........................ XXXXXXX +++++++++++",
"++++++++++ XXXXXXXXX ...................... XXXXXXXXX ++++++++++",
"+++++++++ XXXXXXXXXXX .................... XXXXXXXXXXX +++++++++",
"++++++++ XXXXXXXXXXXXX .................. XXXXXXXXXXXXX ++++++++",
"+++++++ XXXXXXXXXXXXXXX ................ XXXXXXXXXXXXXXX +++++++",
"++++++ XXXXXXXXXXXXXXXXX .............. XXXXXXXXXXXXXXXXX ++++++",
"+++++ XXXXXXXXXXXXXXXXXXX ............ XXXXXXXXXXXXXXXXXXX +++++",
"++++ XooooooooXXXXXXXXXXXX .......... XXXXXXXXXXXXXXXXXXXXX ++++",
"+++ XXooooooooXXXXXXXXXXXXX ........ XXXXXXXXXXXXXXXXXXXXXXX +++",
"++ Xoo########ooXXXXXXXXXXXX ...... XXXXXXXXXXXXXXXXXXXXXXXXX ++",
"+ XXoo########ooXXXXXXXXXXXXX .... XXXXXXXXXXXXXXXXXXXXXXXXXXX +",
" Xoo####  ##  ##ooXXXXXXXXXXXX .. XXXXXXXXXXXXXXXXXXXXXXXXXXXXX ",
" Xoo####  ##  ##ooXXXXXXXXXXXXX  XXXXXXXXXXXXXXXXXXXXXXXXXXXXXX ",
" Xoo####  ##  ##ooXXXXXXXXXXXXX  XXXXXXXXXXXXXXXXXXXXXXXXXXXXXX ",
" Xoo####  ##  ##ooXXXXXXXXXXXX .. XXXXXXXXXXXXXXXXXXXXXXXXXXXXX ",
"+ oo####  ##  ##ooXXXXXXXXXXX .... XXXXXXXXXXXXXXXXXXXXXXXXXXX +",
"++oo####  ##  ##ooXXXXXXXXXX ...... XXXXXXXXXXXXXXXXXXXXXXXXX ++",
"++oo############ooXXXXXXXXX ........ XXXXXXXXXXXXXXXXXXXXXXX +++",
"++oo############ooXXXXXXXX .......... XXXXXXXXXXXXXXXXXXXXX ++++",
"++++oo########ooXXXXXXXXX ............ XXXXXXXXXXXXXXXXXXX +++++",
"++++oo########ooXXXXXXXX .............. XXXXXXXXXXXXXXXXX ++++++",
"++++++ooooooooXXXXXXXXX ................ XXXXXXXXXXXXXXX +++++++",
"++++++ooooooooXXXXXXXX .................. XXXXXXXXXXXXX ++++++++",
"++++OOOO+ XXXXXXXXXXX .................... XXXXXXXXXXX +++++++++",
"++++OOOO++ XXXXXXXXX ...................... XXXXXXXXX ++++++++++",
"++OO++OOOO+ XXXXXXX ........................ XXXXXXX +++++++++++",
"++OO++OOOO++ XXXXX .......................... XXXXX ++++++++++++",
"OO++++OOOO+++ XXX ............................ XXX +++++++++++++",
"OO++++OOOO++++ X .............................. X ++++++++++++++",
"OO++++OOOO+++++ ................................ +++++++++++++++",
"OO++++OOOO++++ @ .............................. @ ++++++++++++++",
"OO++++OO++OO+ @@@ ............................ @@@ +++++++++++++",
"OO++++OO++OO @@@@@ .......................... @@@@@ ++++++++++++",
"++OO++OO+++ @@@@@@@ ........................ @@@@@@@ +++++++++++",
"++OO++OO++ @@@@@@@@@ ...................... @@@@@@@@@ ++++++++++",
"++++++OOOO@@@@@@@@@@@ .................... @@@@@@@@@@@ +++++++++",
"++++++OOOO@@@@@@@@@@@@ .................. @@@@@@@@@@@@@ ++++++++",
"++++++OO@@OO@@@@@@@@@@@ ................ @@@@@@@@@@@@@@@ +++++++",
"++++++OO@@OO@@@@@@@@@@@@ .............. @@@@@@@@@@@@@@@@@ ++++++",
"++++OO@@@@OO@@@@@@@@@@@@@ ............ @@@@@@@@@@@@@@@@@@@ +++++",
"++++OO@@@@OO@@@@@@@@@@@@@@ .......... @@@@@@@@@@@@@@@@@@@@@ ++++",
"++OO@@@@@@OO@@@@@@@@@@@@@@@ ........ @@@@@@@@@@@@@@@@@@@@@@@ +++",
"++OO@@@@@@OO@@@@@@@@@@@@@@@@ ...... @@@@@@@@@@@@@@@@@@@@@@@@@ ++",
"OO@@@@@@@@OO@@@@@@@@@@@@@@@@@ .... @@@@@@@@@@@@@@@@@@@@@@@@@@@ +",
"OO@@@@@@@@OO@@@@@@@@@@@@@@@@@@    @@@@@@@@@@@@@@@@@@@@@@@@@@@@@ "
};
